<?xml version="1.0" standalone="no"?>
<!DOCTYPE svg PUBLIC "-//W3C//DTD SVG 20010904//EN"
 "http://www.w3.org/TR/2001/REC-SVG-20010904/DTD/svg10.dtd">
<svg version="1.0" xmlns="http://www.w3.org/2000/svg"
 width="512.000000pt" height="512.000000pt" viewBox="0 0 512.000000 512.000000"
 preserveAspectRatio="xMidYMid meet">

<g transform="translate(0.000000,512.000000) scale(0.100000,-0.100000)"
fill="#000000" stroke="none">
<path d="M4133 5030 c-45 -9 -66 -16 -1008 -315 -603 -192 -897 -285 -2175
-689 -289 -92 -553 -180 -587 -196 -115 -56 -203 -156 -253 -285 -33 -86 -34
-231 -2 -333 l23 -73 -21 -57 c-47 -124 -33 -283 35 -398 19 -33 62 -84 95
-115 l60 -56 0 -116 c0 -106 -2 -116 -20 -122 -11 -3 -29 -18 -40 -32 -20 -25
-20 -37 -20 -877 0 -939 -2 -908 63 -1030 66 -126 209 -229 352 -256 43 -8
604 -10 2035 -8 l1975 3 59 23 c171 65 295 207 332 381 19 92 20 1413 1 1451
-13 27 -69 50 -99 42 -11 -2 -27 -16 -36 -30 -15 -24 -17 -93 -22 -747 l-5
-720 -24 -45 c-53 -103 -148 -171 -262 -190 -84 -13 -3830 -14 -3913 0 -118
19 -214 91 -264 198 l-27 57 -3 812 -3 813 2306 0 2307 0 29 30 30 30 -3 297
-3 298 -28 57 c-34 69 -92 129 -155 160 l-47 23 -1890 5 -1890 5 80 27 c44 15
863 275 1820 578 957 304 1752 558 1767 566 66 34 104 128 87 217 -10 53 -78
270 -102 327 -26 60 -101 154 -155 193 -119 88 -265 123 -399 97z m-153 -560
c170 -129 307 -237 302 -241 -6 -5 -451 -148 -684 -219 l-56 -18 -334 229
c-183 126 -334 233 -336 237 -3 10 747 251 776 249 12 -1 162 -108 332 -237z
m-1894 -592 c190 -127 341 -234 337 -238 -4 -4 -162 -55 -349 -114 l-341 -108
-377 218 c-207 119 -376 220 -376 224 0 3 170 61 378 127 207 67 378 121 380
122 2 1 159 -103 348 -231z m-1466 -638 c109 -21 199 -90 243 -188 32 -72 30
-189 -4 -263 -32 -68 -83 -120 -152 -156 -45 -24 -64 -28 -137 -28 -71 0 -94
4 -140 26 -70 33 -126 89 -159 159 -37 81 -37 193 2 272 44 89 134 158 230
178 59 11 58 11 117 0z m1970 -387 c-1 -5 -69 -134 -153 -288 l-152 -280 -418
-3 c-258 -1 -417 1 -415 7 1 5 89 136 193 290 l190 281 378 0 c207 0 377 -3
377 -7z m1808 0 c-2 -5 -66 -135 -143 -290 l-139 -283 -383 0 c-211 0 -383 3
-383 8 0 4 64 134 142 289 l143 283 383 0 c211 0 382 -3 380 -7z"/>
<path d="M706 1338 c-15 -13 -29 -37 -32 -55 -5 -27 -1 -37 24 -63 l30 -30
1129 0 c620 0 1138 3 1151 6 25 7 52 51 52 84 0 12 -13 35 -29 51 l-29 29
-1136 0 -1135 0 -25 -22z"/>
<path d="M702 857 c-30 -32 -29 -87 1 -115 23 -22 24 -22 503 -22 l481 0 21
23 c30 32 29 87 -1 115 -23 22 -24 22 -503 22 l-481 0 -21 -23z"/>
</g>
</svg>
